<svg xmlns="http://www.w3.org/2000/svg" viewBox="0 0 196.12 204.69"><g id="Layer_2" data-name="Layer 2"><g id="Layer_1-2" data-name="Layer 1"><path d="M61.82,170.67c-5.23-1.47-10.67-2.45-15.66-4.5a72.63,72.63,0,0,1-33.08-27.09c-8-11.94-10.58-25-6-39,1.5-4.59,3.18-9.12,5-13.59a103.57,103.57,0,0,0,7.43-33c.53-8.47.7-17,1.14-25.45A29.26,29.26,0,0,1,30.87,6.58C41.1-2.33,57.42-2.21,66.8,7.06A24.47,24.47,0,0,1,73.9,30a135.72,135.72,0,0,1-6.79,23.44c-4.9,12.62-7.94,25.36-6.54,39,1.23,11.91,3.88,23.3,10.81,33.35,4.39,6.38,7.61,13.36,8.48,21.11a30.06,30.06,0,0,1-.7,10.82C77,166,70.88,170,61.82,170.67Z"/><path d="M56.44,186.31a43,43,0,0,1,.83-4.69c1.25-4.53,3.9-7.67,8.83-8.26,5.1-.62,9.11,1.15,11.86,5.58,3.73,6,2.9,16.69-1.69,22.15-3.59,4.26-8.26,4.8-12.74,1.29C58.6,198.51,56.77,193.11,56.44,186.31Z"/><path d="M34.2,181.13a28.25,28.25,0,0,1,.49-4c.9-3.38,2.57-6.25,6.36-6.84,3.62-.55,6.5,1.08,8.54,4a13.3,13.3,0,0,1,1.71,11.46c-1.06,4-4.16,6.48-7.79,6.52a8.87,8.87,0,0,1-8.79-6.71A31.35,31.35,0,0,1,34.2,181.13Z"/><path d="M32.67,168c.11,4.46-2.74,7.92-6.53,7.92-3.62,0-6.44-3.12-6.62-7.34-.19-4.38,2.31-7.77,5.84-7.94C29.06,160.41,32.57,164,32.67,168Z"/><path d="M18.49,154.07c0,3.5-2.11,6.52-4.73,6.63-3,.12-6.15-3.67-6.08-7.29.06-3.06,2.39-5.64,5.12-5.68C15.88,147.69,18.44,150.55,18.49,154.07Z"/><path d="M9,139.76c-.17,2.82-2.51,5.43-4.89,5.43S-.2,142.54,0,139.82c.23-2.93,2.65-5.31,5.14-5S9.12,137.08,9,139.76Z"/><path d="M136.1,84.42a58.83,58.83,0,0,0-3.52-21.09c-2.91-8.51-6.05-16.94-8.74-25.51a34.92,34.92,0,0,1-1-19.23C125.54,8,134.27,1.08,145.06.19a27.8,27.8,0,0,1,30.15,24.87c.38,4.48.69,9,.76,13.45.19,13.21,1.16,26.32,5.1,39,1.87,6,4.26,11.9,6.58,17.78,5.42,13.68,5,27.07-2.1,40-6.06,11.06-15.12,19.3-25.69,25.92a58.68,58.68,0,0,1-19.66,8.17c-19.21,3.84-26-9.91-23.77-23.52a46.75,46.75,0,0,1,7.93-19.27C133.21,113.82,135.6,99.42,136.1,84.42Z"/><path d="M115.56,188.78c.35-4.42,1.39-8.34,4.24-11.67,3-3.52,6.92-4.38,11.24-3.65s6.61,3.65,7.76,7.55a20.32,20.32,0,0,1-3.11,18.46c-5.67,7.74-14.13,6.72-17.79-2.13C116.78,194.63,116.32,191.64,115.56,188.78Z"/><path d="M162.57,181.93c-.88,2.1-1.48,5.19-3.21,7.37-4.07,5.09-11.42,3.61-14-2.53a12.5,12.5,0,0,1,1.79-13.11c4.26-5.62,11.56-4.49,14,2.08A51,51,0,0,1,162.57,181.93Z"/><path d="M176.85,168.14c0,4.35-3.06,7.76-6.83,7.72-3.55,0-6.27-3.28-6.32-7.56s3.09-7.68,6.87-7.73C174.07,160.53,176.9,163.94,176.85,168.14Z"/><path d="M188.5,153.67c-.08,3.55-2.9,7-5.74,7s-4.94-2.78-5-6.31c0-3.74,2.7-6.78,5.89-6.58C186.46,148,188.57,150.54,188.5,153.67Z"/><path d="M196.11,140.48c-.07,2.74-1.72,4.7-4,4.73s-4.92-2.9-5-5.82a4.41,4.41,0,0,1,4.66-4.58C194.3,135,196.19,137.5,196.11,140.48Z"/></g></g></svg>