<svg width="182" height="190" xmlns="http://www.w3.org/2000/svg" xmlns:xlink="http://www.w3.org/1999/xlink" overflow="hidden"><defs><clipPath id="clip0"><rect x="549" y="263" width="182" height="190"/></clipPath><clipPath id="clip1"><rect x="549" y="263" width="182" height="189"/></clipPath><clipPath id="clip2"><rect x="549" y="263" width="181" height="189"/></clipPath><clipPath id="clip3"><rect x="549" y="263" width="181" height="226"/></clipPath></defs><g clip-path="url(#clip0)" transform="translate(-549 -263)"><g clip-path="url(#clip1)"><g clip-path="url(#clip2)"><g clip-path="url(#clip3)"><path d="M92.6362 0.0378195C42.9234-1.39212 1.46596 37.7475 0.0378195 87.4586 0.0126065 88.3338 0 89.2091 0 90.0843 0 139.815 40.3156 180.131 90.0465 180.131 139.777 180.131 180.093 139.815 180.093 90.0843 180.115 41.3457 141.351 1.43894 92.6362 0.0378195ZM130.173 45.5113 148.013 63.3513 94.493 116.817 76.653 134.657 58.8688 116.817 32.0782 90.0843 49.9182 72.2443 76.6512 98.9773 130.173 45.5113Z" fill="#08BA98" transform="matrix(1.00344 0 -0 1 549.019 263)"/><text fill="#08BA98" font-family="Arial,Arial_MSFontService,sans-serif" font-weight="700" font-size="5" transform="matrix(1.80713 0 0 1.80093 549.019 470)">Created by Anas Ramadan<tspan x="0" y="4.99742">from the Noun Project</tspan></text></g></g></g></g></svg>