<svg width="188" height="184" xmlns="http://www.w3.org/2000/svg" xmlns:xlink="http://www.w3.org/1999/xlink" overflow="hidden"><defs><clipPath id="clip0"><rect x="546" y="274" width="188" height="184"/></clipPath><clipPath id="clip1"><rect x="547" y="275" width="186" height="183"/></clipPath><clipPath id="clip2"><rect x="548" y="275" width="185" height="183"/></clipPath><clipPath id="clip3"><rect x="548" y="273" width="187" height="235"/></clipPath></defs><g clip-path="url(#clip0)" transform="translate(-546 -274)"><g clip-path="url(#clip1)"><g clip-path="url(#clip2)"><g clip-path="url(#clip3)"><path d="M30.7438 30.7438C65.0012-3.73318 120.779-3.73318 155.256 30.7438 189.733 65.0012 189.733 120.779 155.256 155.256 120.779 189.733 65.0012 189.733 30.7438 155.256-3.73318 120.779-3.73318 65.0012 30.7438 30.7438ZM72.6871 60.17 92.8902 80.3731 113.313 60.17C121.438 51.8253 133.955 64.3424 125.83 72.6871L105.407 92.8902 125.83 113.313C133.955 121.438 121.438 133.955 113.313 125.83L92.8902 105.407 72.6871 125.83C64.3424 133.955 51.8253 121.438 60.17 113.313L80.3731 92.8902 60.17 72.6871C51.8253 64.3424 64.3424 51.8253 72.6871 60.17Z" fill="#C00000" fill-rule="evenodd" transform="matrix(1 0 -0 1.00402 548.248 273.802)"/><text fill="#C00000" font-family="Arial,Arial_MSFontService,sans-serif" font-weight="700" font-size="5" transform="matrix(0.219599 0 0 0.220481 548.248 464)">Created by Rahma<tspan x="0" y="4.53553">from the Noun Project</tspan></text></g></g></g></g></svg>