<svg xmlns="http://www.w3.org/2000/svg" viewBox="0 0 10.71 13.5"><defs><style>.cls-1{fill:none;stroke:#7987a1;stroke-miterlimit:10;}</style></defs><g id="Layer_2" data-name="Layer 2"><g id="Layer_2-2" data-name="Layer 2"><path class="cls-1" d="M8.5,13h-6a1,1,0,0,1-1-1V5h8v7A1,1,0,0,1,8.5,13Z"/><path class="cls-1" d="M4.14,2.5V2A1.49,1.49,0,0,1,5.63.5h0A1.49,1.49,0,0,1,7.11,2V2.5"/><polygon class="cls-1" points="1.5 5 0.5 5 0.5 3.07 10.21 3.07 10.21 5 1.5 5"/><line class="cls-1" x1="3.54" y1="6.5" x2="3.54" y2="11.41"/><line class="cls-1" x1="5.5" y1="6.5" x2="5.5" y2="11.41"/><line class="cls-1" x1="7.5" y1="6.5" x2="7.5" y2="11.41"/></g></g></svg>