<svg width="46" height="58" xmlns="http://www.w3.org/2000/svg" xmlns:xlink="http://www.w3.org/1999/xlink" overflow="hidden"><defs><clipPath id="clip0"><rect x="700" y="225" width="46" height="58"/></clipPath><clipPath id="clip1"><rect x="701" y="225" width="44" height="57"/></clipPath><clipPath id="clip2"><rect x="701" y="225" width="44" height="57"/></clipPath></defs><g clip-path="url(#clip0)" transform="translate(-700 -225)"><g clip-path="url(#clip1)"><g clip-path="url(#clip2)"><path d="M35.7363 11.3651C35.7363 13.7818 33.7771 15.741 31.3604 15.741 28.9437 15.741 26.9845 13.7818 26.9845 11.3651 26.9845 8.94839 28.9437 6.98924 31.3604 6.98924 33.7771 6.98924 35.7363 8.94839 35.7363 11.3651Z" fill="#595B6B" transform="matrix(-1 -8.74228e-08 -8.74818e-08 1.00068 754.457 220.579)"/><path d="M21.4539 19.4483C20.6031 19.813 19.5699 20.1776 19.0229 21.0285L15.1332 27.7746C14.4647 28.9294 14.8901 30.4488 16.0449 31.1173 16.4095 31.3604 16.835 31.4212 17.2604 31.4212 18.1112 31.4212 18.9013 30.9958 19.3875 30.2057L22.8518 24.1281 25.4651 22.9733 23.5811 31.4212C23.5811 31.482 23.5811 31.5427 23.5203 31.6643L22.4871 39.3829 15.9233 50.0794C15.194 51.2342 15.5587 52.6928 16.7134 53.4221 17.1388 53.6652 17.5643 53.7868 17.9897 53.7868 18.7798 53.7868 19.6306 53.3613 20.0561 52.632L26.9238 41.4492C27.1061 41.1454 27.2276 40.8415 27.2884 40.4768L28.0785 34.6423 34.8246 39.5044 34.8246 51.3557C34.8246 52.6928 35.9186 53.7868 37.2557 53.7868 38.5928 53.7868 39.6867 52.6928 39.6867 51.3557L39.6867 38.2889C39.6867 37.4988 39.3221 36.7695 38.7143 36.344L31.3604 30.9958 32.9406 24.432 34.7031 26.6199C35.007 26.9845 35.3716 27.2276 35.7363 27.3492L42.6647 29.9018C43.9411 30.388 45.3389 29.7195 45.7643 28.4432 46.2505 27.1669 45.582 25.769 44.3057 25.3436L37.985 23.0341C37.0126 21.8186 35.9794 20.6031 35.007 19.3875 34.1561 18.3544 33.366 16.8957 31.9074 16.6526 31.3604 16.5918 29.2333 16.4095 28.6863 16.4703 28.2001 16.5311 27.7139 16.7134 27.2884 16.9565L21.4539 19.4483Z" fill="#595B6B" transform="matrix(-1 -8.74228e-08 -8.74818e-08 1.00068 754.457 220.579)"/><text fill="#595B6B" font-family="Arial,Arial_MSFontService,sans-serif" font-weight="700" font-size="5" transform="matrix(-0.60776 0 0 0.60817 754.457 291)">Created by Yeoul Kwon<tspan x="0" y="4.93283">from the Noun Project</tspan></text></g></g></g></svg>