<svg width="58" height="58" xmlns="http://www.w3.org/2000/svg" xmlns:xlink="http://www.w3.org/1999/xlink" overflow="hidden"><defs><clipPath id="clip0"><rect x="948" y="222" width="58" height="58"/></clipPath><clipPath id="clip1"><rect x="948" y="222" width="57" height="57"/></clipPath><clipPath id="clip2"><rect x="948" y="222" width="57" height="57"/></clipPath></defs><g clip-path="url(#clip0)" transform="translate(-948 -222)"><g clip-path="url(#clip1)"><g clip-path="url(#clip2)"><path d="M17.8981 554.599C15.6653 554.599 13.8553 556.409 13.8553 558.642 13.8553 560.875 15.6653 562.684 17.8981 562.684 20.131 562.684 21.941 560.875 21.941 558.642 21.941 556.409 20.131 554.599 17.8981 554.599ZM14.7937 563.262C12.4629 563.262 8.95635 565.572 7.79092 566.727L4.30752 572.502C3.23942 574.704 5.60089 576.619 7.79092 574.812 8.95635 572.502 10.1346 569.037 12.4655 569.037L10.9675 575.967C10.5833 577.554 11.8776 578.853 13.0431 579.43L10.047 594.445 14.6313 594.445 17.122 580.585 20.2083 581.163 21.562 588.67 26.2727 588.67 24.9732 580.585C24.9732 580.008 24.3888 578.853 23.6737 578.275L19.4503 575.967 20.6234 570.192C21.7889 571.347 22.3638 572.502 23.5293 572.502L28.7814 573.079C31.1123 572.502 31.1072 570.769 29.359 569.614L24.7024 569.037C22.9542 567.304 21.2036 563.262 18.8727 563.262L14.7937 563.262ZM41.0003 577.698 41.0003 584.05 29.4492 584.05 29.4492 589.825 18.4757 589.825 18.4757 595.6 7.50212 595.6 7.50212 603.107 53.7066 603.107 53.7066 577.698 41.0003 577.698Z" fill="#595B6B" transform="matrix(1 0 -0 1.00514 948 -330.804)"/><text fill="#595B6B" font-family="Arial,Arial_MSFontService,sans-serif" font-weight="700" font-size="5" transform="matrix(0.57749 0 0 0.580455 948 289)">Created by AFY Studio<tspan x="0" y="5.16835">from the Noun Project</tspan></text></g></g></g></svg>