<svg xmlns="http://www.w3.org/2000/svg" viewBox="0 0 80.55 204.6"><g id="Layer_2" data-name="Layer 2"><g id="Layer_1-2" data-name="Layer 1"><path d="M20.54,84.33A58.87,58.87,0,0,0,17,63.24C14.11,54.73,11,46.31,8.27,37.73a34.89,34.89,0,0,1-.95-19.22C10,7.93,18.7,1,29.5.1A27.8,27.8,0,0,1,59.64,25c.39,4.47.7,9,.76,13.45.2,13.2,1.17,26.31,5.1,39,1.88,6,4.26,11.91,6.59,17.78,5.42,13.68,5,27.07-2.1,40-6.07,11.07-15.12,19.3-25.7,25.93a58.58,58.58,0,0,1-19.66,8.16c-19.21,3.84-26-9.91-23.77-23.51a47,47,0,0,1,7.93-19.28C17.65,113.73,20,99.33,20.54,84.33Z"/><path d="M0,188.7c.34-4.43,1.39-8.34,4.23-11.68,3-3.52,6.93-4.37,11.25-3.65s6.61,3.65,7.75,7.55a20.29,20.29,0,0,1-3.11,18.46c-5.66,7.74-14.13,6.73-17.78-2.13C1.22,194.54.76,191.56,0,188.7Z"/><path d="M47,181.84c-.87,2.1-1.47,5.2-3.21,7.37-4.07,5.09-11.41,3.61-14-2.52a12.5,12.5,0,0,1,1.79-13.11c4.27-5.63,11.57-4.49,14.05,2.08A51.06,51.06,0,0,1,47,181.84Z"/><path d="M61.29,168.05c0,4.36-3.06,7.76-6.83,7.73-3.55,0-6.27-3.29-6.33-7.57s3.1-7.68,6.87-7.72C58.51,160.44,61.33,163.85,61.29,168.05Z"/><path d="M72.93,153.59c-.07,3.54-2.9,7-5.74,7s-4.93-2.78-4.95-6.3c0-3.75,2.69-6.78,5.88-6.59C70.9,147.88,73,150.45,72.93,153.59Z"/><path d="M80.55,140.4c-.07,2.73-1.73,4.69-4,4.73s-4.92-2.91-5-5.82a4.41,4.41,0,0,1,4.66-4.58C78.74,134.94,80.63,137.42,80.55,140.4Z"/></g></g></svg>