<?xml version="1.0" encoding="utf-8"?>
<!-- Generator: Adobe Illustrator 23.1.1, SVG Export Plug-In . SVG Version: 6.00 Build 0)  -->
<svg version="1.1" id="Layer_1" xmlns="http://www.w3.org/2000/svg" xmlns:xlink="http://www.w3.org/1999/xlink" x="0px" y="0px"
	 width="360px" height="150px" viewBox="0 0 360 150" style="enable-background:new 0 0 360 150;" xml:space="preserve">
<style type="text/css">
	.st0{fill:#444551;}
	.st1{fill:url(#MIRROR-2_1_);}
	.st2{fill:url(#SVGID_1_);}
	.st3{fill:#999999;}
</style>
<title>Logo</title>
<path id="MIRROR" class="st0" d="M13.8,3.1l18.1,48.5L50.3,3.1h7.8V60h-6V13.3L35,60.1h-5.5L12,13.3V60H6V3.1H13.8z M81.2,3.1V60h-6
	V3.1H81.2z M138.9,19.4c0,1.4-0.2,2.8-0.5,4.1c-0.3,1.4-0.8,2.7-1.5,3.9c-0.7,1.2-1.5,2.3-2.5,3.3s-2.2,1.9-3.5,2.6
	c1.3,0.3,2.5,0.9,3.6,1.7c0.9,0.7,1.7,1.7,2.2,2.7s0.9,2.2,1.1,3.3c0.2,1.2,0.3,2.5,0.3,3.7v8.6c0,1.2,0.2,2.4,0.5,3.6
	c0.3,1.1,0.7,2.2,1.3,3.2h-6.6c-0.3-0.4-0.5-1-0.6-1.5s-0.2-1.1-0.3-1.6c0-0.6-0.1-1.1-0.2-1.7c0-0.5,0-1,0-1.5v-9
	c0-1.1-0.2-2.2-0.6-3.2c-0.4-1.1-1-2.1-1.8-2.9c-0.9-0.9-2-1.6-3.2-2c-1.5-0.5-3.2-0.8-4.8-0.8h-17.2v24.4h-6v-57h23.2
	c2.5,0,5.1,0.5,7.4,1.5c2,0.9,3.8,2.2,5.4,3.7c1.5,1.5,2.6,3.2,3.3,5.2C138.6,15.4,138.9,17.4,138.9,19.4z M104.6,30.3h17.2
	c1.4,0,2.9-0.3,4.2-0.9c2.6-1.2,4.7-3.3,5.9-5.9c0.6-1.4,0.9-2.8,0.9-4.3c0-1.4-0.3-2.9-0.8-4.2s-1.3-2.4-2.3-3.4s-2.2-1.7-3.5-2.2
	c-1.4-0.5-2.9-0.8-4.4-0.8h-17.2L104.6,30.3L104.6,30.3z M195.4,19.4c0,1.4-0.2,2.8-0.5,4.1c-0.3,1.4-0.8,2.7-1.5,3.9
	c-0.7,1.2-1.5,2.3-2.5,3.3s-2.2,1.9-3.5,2.6c1.3,0.3,2.5,0.9,3.6,1.7c0.9,0.8,1.6,1.7,2.2,2.7c0.5,1,0.9,2.2,1.1,3.3
	c0.2,1.2,0.3,2.5,0.3,3.7v8.6c0,1.2,0.2,2.4,0.5,3.6c0.3,1.1,0.7,2.2,1.3,3.2h-6.6c-0.3-0.4-0.5-1-0.6-1.5c-0.1-0.6-0.2-1.1-0.3-1.7
	c-0.1-0.6-0.1-1.2-0.2-1.7V44.7c0-1.1-0.2-2.2-0.6-3.2c-0.4-1.1-1-2.1-1.8-2.9c-0.9-0.9-2-1.6-3.2-2c-1.5-0.5-3.2-0.8-4.8-0.8H161
	v24.4h-6v-57h23.3c2.5,0,5.1,0.5,7.4,1.5c2,0.9,3.8,2.1,5.4,3.7c1.5,1.5,2.6,3.2,3.3,5.2C195.1,15.4,195.4,17.4,195.4,19.4z
	 M161.1,30.3h17.2c1.4,0,2.9-0.3,4.2-0.9c2.6-1.2,4.7-3.3,5.9-5.9c0.6-1.4,0.9-2.8,0.9-4.3c0-1.4-0.3-2.9-0.8-4.2
	c-0.6-1.3-1.3-2.4-2.3-3.4s-2.2-1.7-3.5-2.2c-1.4-0.5-2.9-0.8-4.4-0.8H161L161.1,30.3L161.1,30.3z M259.1,31.5
	c0,4.1-0.5,8.2-1.7,12.1c-1,3.5-2.7,6.7-5,9.5c-2.2,2.6-4.9,4.7-8,6.2c-7,2.9-14.8,2.9-21.8,0c-3.1-1.4-5.8-3.5-8-6.2
	c-2.3-2.8-3.9-6-4.9-9.5c-1.2-3.9-1.7-8-1.7-12.1s0.5-8.1,1.7-12c1-3.4,2.7-6.7,4.9-9.5c2.1-2.6,4.9-4.7,8-6.1
	c3.4-1.5,7.2-2.2,10.9-2.2c3.8-0.1,7.5,0.7,10.9,2.2c3.1,1.4,5.8,3.5,8,6.1c2.3,2.8,4,6,5,9.5C258.6,23.4,259.2,27.5,259.1,31.5z
	 M253.1,31.5c0.1-3.5-0.5-7-1.5-10.3c-0.9-2.8-2.3-5.4-4.1-7.7c-1.7-2.1-3.8-3.7-6.2-4.8c-4.8-2.3-10.5-2.3-15.3,0
	c-2.4,1.1-4.5,2.7-6.1,4.8c-1.8,2.3-3.2,4.9-4.1,7.7c-1,3.3-1.6,6.8-1.5,10.3c-0.1,3.5,0.5,7,1.5,10.4c0.9,2.8,2.2,5.4,4.1,7.7
	c5.2,6.3,14,8.3,21.4,4.8c2.4-1.1,4.5-2.8,6.2-4.8c1.8-2.3,3.2-4.9,4.1-7.7C252.6,38.6,253.2,35.1,253.1,31.5L253.1,31.5z
	 M312.6,19.4c0,1.4-0.2,2.8-0.5,4.1c-0.3,1.4-0.8,2.7-1.5,3.9c-0.7,1.2-1.5,2.3-2.5,3.3s-2.2,1.9-3.5,2.6c1.3,0.3,2.5,0.9,3.6,1.7
	c0.9,0.7,1.7,1.7,2.2,2.7s0.9,2.2,1.1,3.3c0.2,1.2,0.3,2.5,0.3,3.7v8.6c0,1.2,0.2,2.4,0.5,3.6c0.3,1.1,0.7,2.2,1.3,3.2H307
	c-0.3-0.4-0.5-1-0.6-1.5c-0.1-0.6-0.2-1.1-0.3-1.7c0-0.6-0.1-1.1-0.2-1.7V44.7c0-1.1-0.2-2.2-0.6-3.2c-0.4-1.1-1-2.1-1.8-2.9
	c-0.9-0.9-2-1.6-3.2-2c-1.5-0.5-3.2-0.8-4.8-0.8h-17.2v24.4h-6v-57h23.3c2.5,0,5.1,0.5,7.4,1.5c2,0.9,3.8,2.1,5.4,3.7
	c1.5,1.5,2.6,3.2,3.3,5.2C312.4,15.4,312.6,17.4,312.6,19.4z M278.2,30.3h17.2c1.4,0,2.9-0.3,4.2-0.9c2.6-1.2,4.7-3.3,5.9-5.9
	c0.6-1.4,0.9-2.8,0.9-4.3c0-1.4-0.3-2.9-0.8-4.2c-0.6-1.3-1.3-2.4-2.3-3.4s-2.2-1.7-3.5-2.2c-1.4-0.5-2.9-0.8-4.4-0.8h-17.2V30.3
	L278.2,30.3z"/>
<linearGradient id="MIRROR-2_1_" gradientUnits="userSpaceOnUse" x1="-1960.906" y1="78.085" x2="-1960.906" y2="77.795" gradientTransform="matrix(656.3 0 0 196.17 1287044 -15200.2812)">
	<stop  offset="0" style="stop-color:#444551;stop-opacity:0"/>
	<stop  offset="0.52" style="stop-color:#444551;stop-opacity:0.19"/>
	<stop  offset="0.93" style="stop-color:#444551"/>
	<stop  offset="1" style="stop-color:#444551;stop-opacity:0"/>
</linearGradient>
<path id="MIRROR-2" class="st1" d="M14.1,119l18.1-48.5L50.6,119h7.8V62.1h-6v46.7L35.2,62.1h-5.5l-17.5,46.7V62.1h-6V119
	C6.2,119,14.1,119,14.1,119z M81.3,119V62.1h-6V119C75.3,119,81.3,119,81.3,119z M139.1,102.8c0-1.4-0.2-2.8-0.5-4.1
	c-0.3-1.4-0.8-2.7-1.5-3.9c-0.7-1.2-1.5-2.3-2.5-3.3s-2.2-1.9-3.5-2.6c1.3-0.3,2.5-0.9,3.6-1.7c0.9-0.8,1.6-1.7,2.2-2.7
	c0.5-1,0.9-2.2,1.1-3.3c0.2-1.2,0.3-2.5,0.3-3.7v-8.6c0-1.2,0.2-2.4,0.5-3.6c0.3-1.1,0.7-2.2,1.3-3.2h-6.6c-0.3,0.4-0.5,1-0.6,1.5
	c-0.1,0.6-0.2,1.1-0.3,1.7s-0.1,1.2-0.2,1.7v10.5c0,1.1-0.2,2.2-0.6,3.2c-0.4,1.1-1,2.1-1.8,2.9c-0.9,0.9-2,1.6-3.2,2
	c-1.5,0.5-3.2,0.8-4.8,0.8h-17.2V61.9h-6v57h23.3c2.5,0,5.1-0.5,7.4-1.5c2-0.9,3.8-2.2,5.4-3.7c1.5-1.5,2.6-3.2,3.3-5.2
	C138.8,106.6,139.1,104.7,139.1,102.8z M104.7,91.8h17.2c1.4,0,2.9,0.3,4.2,0.9c2.6,1.2,4.7,3.3,5.9,5.9c0.6,1.4,0.9,2.8,0.9,4.3
	c0,1.4-0.3,2.9-0.8,4.2c-0.6,1.3-1.3,2.4-2.3,3.4s-2.2,1.7-3.5,2.2c-1.4,0.5-2.9,0.8-4.4,0.8h-17.2
	C104.7,113.5,104.7,91.7,104.7,91.8z M195.6,102.8c0-1.4-0.2-2.8-0.5-4.1c-0.3-1.4-0.8-2.7-1.5-3.9c-0.7-1.2-1.5-2.3-2.5-3.3
	s-2.2-1.9-3.5-2.6c1.3-0.3,2.5-0.9,3.6-1.7c0.9-0.8,1.6-1.7,2.2-2.7c0.5-1,0.9-2.2,1.1-3.3c0.2-1.2,0.3-2.5,0.3-3.7v-8.6
	c0-1.2,0.2-2.4,0.5-3.6c0.3-1.1,0.7-2.2,1.3-3.2h-6.5c-0.3,0.4-0.5,1-0.6,1.5c-0.1,0.6-0.2,1.1-0.3,1.7s-0.1,1.2-0.2,1.7v10.5
	c0,1.1-0.2,2.2-0.6,3.2c-0.4,1.1-1,2.1-1.8,2.9c-0.9,0.9-2,1.6-3.2,2c-1.5,0.5-3.2,0.8-4.8,0.8h-17.2V61.9h-6.1v57h23.3
	c2.5,0,5.1-0.5,7.4-1.5c2-0.9,3.8-2.1,5.4-3.7c1.5-1.5,2.6-3.2,3.3-5.2C195.2,106.6,195.6,104.7,195.6,102.8z M161.1,91.8h17.2
	c1.4,0,2.9,0.3,4.2,0.9c2.6,1.2,4.7,3.3,5.9,5.9c0.6,1.4,0.9,2.8,0.9,4.3c0,1.4-0.3,2.9-0.8,4.2c-0.5,1.3-1.3,2.4-2.3,3.4
	s-2.2,1.7-3.5,2.2c-1.4,0.5-2.9,0.8-4.4,0.8h-17.2L161.1,91.8L161.1,91.8z"/>
<linearGradient id="SVGID_1_" gradientUnits="userSpaceOnUse" x1="275.7357" y1="-593.8766" x2="275.7357" y2="-638.3367" gradientTransform="matrix(1 0 0 -1 0 -490)">
	<stop  offset="0" style="stop-color:#444551"/>
	<stop  offset="1" style="stop-color:#FFFFFF;stop-opacity:0"/>
</linearGradient>
<path class="st2" d="M353.1,132.3c-4.7,2.6-9.9,4-15.3,4c-3.3,0-6.6-0.6-9.7-1.7c-3.1-1.1-6.1-2.6-8.8-4.4c-2.7-1.9-5.3-4-7.6-6.4
	c-2.3-2.4-4.4-4.9-6.4-7.5c-3.6-5-6.8-9.8-9.7-14.3s-5.1-8.2-6.7-11.2c-0.2-0.6,0-0.9,0.8-1c3.6-0.4,7.2-1.2,10.6-2.5
	c2.9-1,5.7-2.5,8.2-4.4c2.1-1.5,3.8-3.4,5.2-5.6c1.2-1.7,1.9-3.7,1.9-5.8c0-3.8-1.9-6.5-5.6-8c-3.7-1.5-8.9-2.2-15.7-2.2
	c-5.3,0-10.6,0.5-15.8,1.5c-2.8,0.6-5.6,1.4-8.3,2.4c-2.6,0.9-5.1,2-7.5,3.3c-0.9,0.4-1.5,1.2-1.5,2.2c-0.1,0.9-0.3,1.7-0.6,2.6
	c-0.2,0.8-0.5,1.7-0.8,2.5c0,0.1,0.1,0.3,0.2,0.3c0,0,0,0,0.1,0c0.2,0,0.3,0,0.5-0.1c0.9-1.7,2.1-3.3,3.3-4.8
	c1.2-1.4,2.6-2.6,4.1-3.5c2.3-1.3,4.7-2.3,7.2-3.1c2.5-0.8,5.1-1.3,7.7-1.5c0.4,0,0.7,0.1,0.8,0.3s0.1,0.6-0.2,1.3
	c-3.9,7.5-8.6,15.7-14,24.7c-4.3,7.1-9.4,15-15.2,23.7h-0.1c-0.7-0.3-1.2-0.7-1.7-1.3c-0.7-0.9-1.2-1.9-1.6-3
	c-0.2-0.9-0.6-2.5-1.2-4.8c-0.5-2.3-1.1-5-1.7-7.9s-1.2-6-1.8-9.2s-1.2-6.2-1.7-9s-1-5.2-1.3-7.1c-0.3-1.1-0.5-2.3-0.6-3.4
	c-0.3-1.4-0.4-2.9-0.5-4.3c-0.1-1.6,0-3.3,0.3-4.9c0.1-0.4,0-0.8-0.2-1.1s-0.4-0.2-0.7,0.5c-0.5,0.9-1.3,1.7-2.2,2.2
	c-0.9,0.6-1.8,1.4-2.5,2.2c-1.9,2.8-6,10.2-12.3,22.1s-14.3,27.9-24.2,48.1c-1,2.3-1.8,4.2-2.4,5.7c-0.5,1.4-0.6,3-0.1,4.5l3.1,5.6
	c0.4,0.2,0.6,0,0.6-0.6c-0.4-1.1-0.6-2.3-0.6-3.5c0-1.1,0.1-2.2,0.3-3.3c1.3-5.1,2.9-10.1,4.9-14.9c2.4-6.2,5.6-13.2,9.5-21
	c1.7-0.4,3.4-1,5.1-1.6c2.2-0.9,4.5-1.7,6.8-2.6s4.2-1.6,5.8-2.1c1.1-0.4,2.2-0.7,3.4-0.9c1.5-0.2,3,0,4.4,0.6
	c1,0.4,1.9,1.2,2.3,2.2c0.4,1,0.6,2.1,0.8,3.2c0.3,1.7,0.7,3.4,1.1,5.3s0.8,3.6,1.1,5.3s0.6,2.7,0.7,3.2c0.4,0.8,1.2,1.4,2.1,1.7
	l0,0c0.2,0.3,3.4-0.5,3.9-0.8c0.6-0.2,1.3-0.3,1.9-0.3h1.5c0.4,0,0.9,0.1,1.3,0.1s0.9,0.1,1.3,0.2c0.2,0,0.4-0.1,0.5-0.3
	c0.8-1.7,2-4,3.5-7s3.3-6.3,5.3-9.9s4.2-7.3,6.4-11.2s4.3-7.5,6.4-10.9c2.1-3.4,4-6.4,5.7-9c1.7-2.6,3.1-4.5,4-5.6
	c0.6-0.6,1.3-1.1,2.1-1.3c0.8-0.2,1.7-0.3,2.5-0.3c2.1-0.1,4.1,0.2,6.1,0.9c1.4,0.4,2.8,1.2,3.9,2.2c1,0.8,1.7,1.9,2.1,3.1
	c0.4,1.1,0.6,2.2,0.6,3.3c0,2.7-0.7,5.3-2,7.6c-1.3,2.2-3.2,4.1-5.5,5.4c-2.6,1.5-5.5,2.5-8.4,3.1c-3.5,0.7-7,1-10.6,1
	c-0.3,0-0.4,0.2-0.4,0.5c0.8,1.2,1.7,2.9,2.9,4.9s2.4,4.1,3.7,6.2c1.3,2.1,2.5,4.2,3.7,6.2c1.2,2,2.2,3.7,3.1,5.1
	c2.6,4.1,5.5,8.1,8.7,11.8c2.6,3,5.5,5.7,8.8,7.9c3.1,2.1,6.6,3.6,10.2,4.6c4.2,1.1,8.5,1.6,12.8,1.5c3.2,0,6.5-0.4,9.6-1.3
	c3-0.9,5.9-2,8.6-3.5c0.3,0,0.5-0.3,0.5-0.6C353.9,132,353.6,132,353.1,132.3z M242.2,94.6c-0.5,0.1-1,0.2-1.5,0.2
	c-1.2,0.2-2.4,0.6-3.5,1c-1.7,0.5-3.7,1.3-6.3,2.3l-3.6,1.4c-1.4,0.6-2.8,1.1-4.2,1.5c-1.2,0.4-2.4,0.6-3.6,0.8
	c-1.1,0.1-1.7-0.1-2-0.5c0.7-2,1.5-3.8,2.6-5.6c1-2.3,2.2-4.6,3.5-7.1s2.6-5,4-7.5s2.6-4.8,3.8-6.9s2.1-3.9,2.9-5.2s1.2-2.1,1.4-2.4
	c0.5-0.7,0.8-1.1,1-1.1s0.3,0.3,0.4,1c0,0.3,0.3,1.6,0.7,3.8l3.2,16.3c0.6,2.9,1,5.2,1.3,6.9C242.3,94.1,242.3,94.5,242.2,94.6z"/>
<path class="st3" d="M331.4,121.4h-3.5v-1.3h8.7v1.3h-3.5v10.5h-1.5L331.4,121.4L331.4,121.4z"/>
<path class="st3" d="M348,126.9c0-1.7-0.2-3.7-0.2-5l0,0c-0.4,1.3-0.9,2.8-1.5,4.4l-2.2,5.7H343l-2-5.7c-0.7-1.7-1.1-3.1-1.3-4.6
	l0,0c0,1.5-0.2,3.5-0.2,5.2l-0.2,5h-1.5l0.9-11.8h2l2,5.7c0.4,1.5,0.9,2.8,1.1,3.9l0,0c0.2-1.3,0.7-2.4,1.3-3.9l2.2-5.7h1.7
	l0.7,11.8H348V126.9z"/>
<path class="st0" d="M473.6-65.5c-4.7,2.6-9.9,4-15.3,4c-3.3,0-6.6-0.6-9.7-1.7c-3.1-1.1-6.1-2.6-8.8-4.4c-2.7-1.9-5.3-4-7.6-6.4
	c-2.3-2.4-4.4-4.9-6.4-7.5c-3.6-5-6.8-9.8-9.7-14.3s-5.1-8.2-6.7-11.2c-0.2-0.6,0-0.9,0.8-1c3.6-0.4,7.2-1.2,10.6-2.5
	c2.9-1,5.7-2.5,8.2-4.4c2.1-1.5,3.8-3.4,5.2-5.6c1.2-1.7,1.9-3.7,1.9-5.8c0-3.8-1.9-6.5-5.6-8s-8.9-2.2-15.7-2.2
	c-5.3,0-10.6,0.5-15.8,1.5c-2.8,0.6-5.6,1.4-8.3,2.4c-2.6,0.9-5.1,2-7.5,3.3c-0.9,0.4-1.5,1.2-1.5,2.2c-0.1,0.9-0.3,1.7-0.6,2.6
	c-0.2,0.8-0.5,1.7-0.8,2.5c0,0.1,0.1,0.3,0.2,0.3c0,0,0,0,0.1,0c0.2,0,0.3,0,0.5-0.1c0.9-1.7,2.1-3.3,3.3-4.8
	c1.2-1.4,2.6-2.6,4.1-3.5c2.3-1.3,4.7-2.3,7.2-3.1c2.5-0.8,5.1-1.3,7.7-1.5c0.4,0,0.7,0.1,0.8,0.3s0.1,0.6-0.2,1.3
	c-3.9,7.5-8.6,15.7-14,24.7c-4.3,7.1-9.4,15-15.2,23.7h-0.1c-0.7-0.3-1.2-0.7-1.7-1.3c-0.7-0.9-1.2-1.9-1.6-3
	c-0.2-0.9-0.6-2.5-1.2-4.8c-0.5-2.3-1.1-5-1.7-7.9s-1.2-6-1.8-9.2s-1.2-6.2-1.7-9s-1-5.2-1.3-7.1c-0.3-1.1-0.5-2.3-0.6-3.4
	c-0.3-1.4-0.4-2.9-0.5-4.3c-0.1-1.6,0-3.3,0.3-4.9c0.1-0.4,0-0.8-0.2-1.1c-0.2-0.3-0.4-0.2-0.7,0.5c-0.5,0.9-1.3,1.7-2.2,2.2
	c-0.9,0.6-1.8,1.4-2.5,2.2c-1.9,2.8-6,10.2-12.3,22.1s-14.3,27.9-24.2,48.1c-1,2.3-1.8,4.2-2.4,5.7c-0.5,1.4-0.6,3-0.1,4.5l3.1,5.6
	c0.4,0.2,0.6,0,0.6-0.6c-0.4-1.1-0.6-2.3-0.6-3.5c0-1.1,0.1-2.2,0.3-3.3c1.3-5.1,2.9-10.1,4.9-14.9c2.4-6.2,5.6-13.2,9.5-21
	c1.7-0.4,3.4-1,5.1-1.6c2.2-0.9,4.5-1.7,6.8-2.6s4.2-1.6,5.8-2.1c1.1-0.4,2.2-0.7,3.4-0.9c1.5-0.2,3,0,4.4,0.6
	c1,0.4,1.9,1.2,2.3,2.2s0.6,2.1,0.8,3.2c0.3,1.7,0.7,3.4,1.1,5.3s0.8,3.6,1.1,5.3c0.3,1.7,0.6,2.7,0.7,3.2c0.4,0.8,1.2,1.4,2.1,1.7
	l0,0c0.2,0.3,3.4-0.5,3.9-0.8c0.6-0.2,1.3-0.3,1.9-0.3h1.5c0.4,0,0.9,0.1,1.3,0.1s0.9,0.1,1.3,0.2c0.2,0,0.4-0.1,0.5-0.3
	c0.8-1.7,2-4,3.5-7s3.3-6.3,5.3-9.9s4.2-7.3,6.4-11.2s4.3-7.5,6.4-10.9s4-6.4,5.7-9c1.7-2.6,3.1-4.5,4-5.6c0.6-0.6,1.3-1.1,2.1-1.3
	c0.8-0.2,1.7-0.3,2.5-0.3c2.1-0.1,4.1,0.2,6.1,0.9c1.4,0.4,2.8,1.2,3.9,2.2c1,0.8,1.7,1.9,2.1,3.1c0.4,1.1,0.6,2.2,0.6,3.3
	c0,2.7-0.7,5.3-2,7.6c-1.3,2.2-3.2,4.1-5.5,5.4c-2.6,1.5-5.5,2.5-8.4,3.1c-3.5,0.7-7,1-10.6,1c-0.3,0-0.4,0.2-0.4,0.5
	c0.8,1.2,1.7,2.9,2.9,4.9s2.4,4.1,3.7,6.2s2.5,4.2,3.7,6.2s2.2,3.7,3.1,5.1c2.6,4.1,5.5,8.1,8.7,11.8c2.6,3,5.5,5.7,8.8,7.9
	c3.1,2.1,6.6,3.6,10.2,4.6c4.2,1.1,8.5,1.6,12.8,1.5c3.2,0,6.5-0.4,9.6-1.3c3-0.9,5.9-2,8.6-3.5c0.3,0,0.5-0.3,0.5-0.6
	C474.4-65.8,474.1-65.8,473.6-65.5z M362.7-103.2c-0.5,0.1-1,0.2-1.5,0.2c-1.2,0.2-2.4,0.6-3.5,1c-1.7,0.5-3.7,1.3-6.3,2.3l-3.6,1.4
	c-1.4,0.6-2.8,1.1-4.2,1.5c-1.2,0.4-2.4,0.6-3.6,0.8c-1.1,0.1-1.7-0.1-2-0.5c0.7-2,1.5-3.8,2.6-5.6c1-2.3,2.2-4.6,3.5-7.1
	s2.6-5,4-7.5s2.6-4.8,3.8-6.9c1.2-2.1,2.1-3.9,2.9-5.2c0.8-1.3,1.2-2.1,1.4-2.4c0.5-0.7,0.8-1.1,1-1.1s0.3,0.3,0.4,1
	c0,0.3,0.3,1.6,0.7,3.8l3.2,16.3c0.6,2.9,1,5.2,1.3,6.9C362.8-103.7,362.8-103.3,362.7-103.2z"/>
<path class="st0" d="M455.8-73.9h-1.6v-0.6h4v0.6h-1.6v4.8h-0.7L455.8-73.9L455.8-73.9z"/>
<path class="st0" d="M463.4-71.4c0-0.8-0.1-1.7-0.1-2.3l0,0c-0.2,0.6-0.4,1.3-0.7,2l-1,2.6h-0.5l-0.9-2.6c-0.3-0.8-0.5-1.4-0.6-2.1
	l0,0c0,0.7-0.1,1.6-0.1,2.4l-0.1,2.3h-0.7l0.4-5.4h0.9l0.9,2.6c0.2,0.7,0.4,1.3,0.5,1.8l0,0c0.1-0.6,0.3-1.1,0.6-1.8l1-2.6h0.8
	l0.3,5.4h-0.7L463.4-71.4z"/>
<path id="MIRROR_1_" class="st0" d="M25.4-135.9l18.1,48.5l18.4-48.5h7.8V-79h-6v-46.7L46.6-78.9h-5.5l-17.5-46.8V-79h-6v-56.9H25.4
	z M92.8-135.9V-79h-6v-56.9H92.8z M150.5-119.6c0,1.4-0.2,2.8-0.5,4.1c-0.3,1.4-0.8,2.7-1.5,3.9s-1.5,2.3-2.5,3.3s-2.2,1.9-3.5,2.6
	c1.3,0.3,2.5,0.9,3.6,1.7c0.9,0.7,1.7,1.7,2.2,2.7s0.9,2.2,1.1,3.3c0.2,1.2,0.3,2.5,0.3,3.7v8.6c0,1.2,0.2,2.4,0.5,3.6
	c0.3,1.1,0.7,2.2,1.3,3.2h-6.6c-0.3-0.4-0.5-1-0.6-1.5s-0.2-1.1-0.3-1.6c0-0.6-0.1-1.1-0.2-1.7c0-0.5,0-1,0-1.5v-9
	c0-1.1-0.2-2.2-0.6-3.2c-0.4-1.1-1-2.1-1.8-2.9c-0.9-0.9-2-1.6-3.2-2c-1.5-0.5-3.2-0.8-4.8-0.8h-17.2v24.4h-6v-57h23.2
	c2.5,0,5.1,0.5,7.4,1.5c2,0.9,3.8,2.2,5.4,3.7c1.5,1.5,2.6,3.2,3.3,5.2C150.2-123.6,150.5-121.6,150.5-119.6z M116.1-108.7h17.2
	c1.4,0,2.9-0.3,4.2-0.9c2.6-1.2,4.7-3.3,5.9-5.9c0.6-1.4,0.9-2.8,0.9-4.3c0-1.4-0.3-2.9-0.8-4.2s-1.3-2.4-2.3-3.4s-2.2-1.7-3.5-2.2
	c-1.4-0.5-2.9-0.8-4.4-0.8h-17.2L116.1-108.7L116.1-108.7z M207-119.6c0,1.4-0.2,2.8-0.5,4.1c-0.3,1.4-0.8,2.7-1.5,3.9
	s-1.5,2.3-2.5,3.3s-2.2,1.9-3.5,2.6c1.3,0.3,2.5,0.9,3.6,1.7c0.9,0.8,1.6,1.7,2.2,2.7c0.5,1,0.9,2.2,1.1,3.3
	c0.2,1.2,0.3,2.5,0.3,3.7v8.6c0,1.2,0.2,2.4,0.5,3.6c0.3,1.1,0.7,2.2,1.3,3.2h-6.6c-0.3-0.4-0.5-1-0.6-1.5c-0.1-0.6-0.2-1.1-0.3-1.7
	s-0.1-1.2-0.2-1.7v-10.5c0-1.1-0.2-2.2-0.6-3.2c-0.4-1.1-1-2.1-1.8-2.9c-0.9-0.9-2-1.6-3.2-2c-1.5-0.5-3.2-0.8-4.8-0.8h-17.3v24.4
	h-6v-57h23.3c2.5,0,5.1,0.5,7.4,1.5c2,0.9,3.8,2.1,5.4,3.7c1.5,1.5,2.6,3.2,3.3,5.2C206.6-123.6,207-121.6,207-119.6z M172.6-108.7
	h17.2c1.4,0,2.9-0.3,4.2-0.9c2.6-1.2,4.7-3.3,5.9-5.9c0.6-1.4,0.9-2.8,0.9-4.3c0-1.4-0.3-2.9-0.8-4.2c-0.6-1.3-1.3-2.4-2.3-3.4
	s-2.2-1.7-3.5-2.2c-1.4-0.5-2.9-0.8-4.4-0.8h-17.2L172.6-108.7L172.6-108.7z M270.7-107.5c0,4.1-0.5,8.2-1.7,12.1
	c-1,3.5-2.7,6.7-5,9.5c-2.2,2.6-4.9,4.7-8,6.2c-7,2.9-14.8,2.9-21.8,0c-3.1-1.4-5.8-3.5-8-6.2c-2.3-2.8-3.9-6-4.9-9.5
	c-1.2-3.9-1.7-8-1.7-12.1s0.5-8.1,1.7-12c1-3.4,2.7-6.7,4.9-9.5c2.1-2.6,4.9-4.7,8-6.1c3.4-1.5,7.2-2.2,10.9-2.2
	c3.8-0.1,7.5,0.7,10.9,2.2c3.1,1.4,5.8,3.5,8,6.1c2.3,2.8,4,6,5,9.5C270.2-115.6,270.8-111.5,270.7-107.5z M264.7-107.5
	c0.1-3.5-0.5-7-1.5-10.3c-0.9-2.8-2.3-5.4-4.1-7.7c-1.7-2.1-3.8-3.7-6.2-4.8c-4.8-2.3-10.5-2.3-15.3,0c-2.4,1.1-4.5,2.7-6.1,4.8
	c-1.8,2.3-3.2,4.9-4.1,7.7c-1,3.3-1.6,6.8-1.5,10.3c-0.1,3.5,0.5,7,1.5,10.4c0.9,2.8,2.2,5.4,4.1,7.7c5.2,6.3,14,8.3,21.4,4.8
	c2.4-1.1,4.5-2.8,6.2-4.8c1.8-2.3,3.2-4.9,4.1-7.7C264.2-100.4,264.8-103.9,264.7-107.5L264.7-107.5z M324.2-119.6
	c0,1.4-0.2,2.8-0.5,4.1c-0.3,1.4-0.8,2.7-1.5,3.9s-1.5,2.3-2.5,3.3s-2.2,1.9-3.5,2.6c1.3,0.3,2.5,0.9,3.6,1.7
	c0.9,0.7,1.7,1.7,2.2,2.7s0.9,2.2,1.1,3.3c0.2,1.2,0.3,2.5,0.3,3.7v8.6c0,1.2,0.2,2.4,0.5,3.6c0.3,1.1,0.7,2.2,1.3,3.2h-6.6
	c-0.3-0.4-0.5-1-0.6-1.5c-0.1-0.6-0.2-1.1-0.3-1.7c0-0.6-0.1-1.1-0.2-1.7v-10.5c0-1.1-0.2-2.2-0.6-3.2c-0.4-1.1-1-2.1-1.8-2.9
	c-0.9-0.9-2-1.6-3.2-2c-1.5-0.5-3.2-0.8-4.8-0.8h-17.2v24.4h-6v-57h23.3c2.5,0,5.1,0.5,7.4,1.5c2,0.9,3.8,2.1,5.4,3.7
	c1.5,1.5,2.6,3.2,3.3,5.2C323.9-123.6,324.2-121.6,324.2-119.6z M289.8-108.7H307c1.4,0,2.9-0.3,4.2-0.9c2.6-1.2,4.7-3.3,5.9-5.9
	c0.6-1.4,0.9-2.8,0.9-4.3c0-1.4-0.3-2.9-0.8-4.2c-0.6-1.3-1.3-2.4-2.3-3.4s-2.2-1.7-3.5-2.2c-1.4-0.5-2.9-0.8-4.4-0.8h-17.2V-108.7
	L289.8-108.7z"/>
</svg>
