<?xml version="1.0" encoding="utf-8"?>
<!-- Generator: Adobe Illustrator 23.1.1, SVG Export Plug-In . SVG Version: 6.00 Build 0)  -->
<svg version="1.1" id="Layer_1" xmlns="http://www.w3.org/2000/svg" xmlns:xlink="http://www.w3.org/1999/xlink" x="0px" y="0px"
	 width="360px" height="148.9px" viewBox="0 0 360 148.9" style="enable-background:new 0 0 360 148.9;" xml:space="preserve">
<style type="text/css">
	.st0{fill:#FFFFFF;}
	.st1{fill:url(#MIRROR-2_1_);}
	.st2{fill:url(#SVGID_1_);}
</style>
<title>MirrorAR Logo-White TM</title>
<path id="MIRROR" class="st0" d="M13.8,2.7l18.1,48.5L50.3,2.7h7.8v56.9h-6V12.9L35,59.6h-5.5L12,12.9v46.7H6V2.7H13.8z M81.2,2.7
	v56.9h-6V2.7H81.2z M138.9,18.9c0,1.4-0.2,2.8-0.5,4.1c-0.3,1.4-0.8,2.7-1.5,3.9c-0.7,1.2-1.5,2.3-2.5,3.3s-2.2,1.9-3.5,2.6
	c1.3,0.3,2.5,0.9,3.6,1.7c0.9,0.7,1.7,1.7,2.2,2.7s0.9,2.2,1.1,3.3c0.2,1.2,0.3,2.5,0.3,3.7v8.6c0,1.2,0.2,2.4,0.5,3.6
	c0.3,1.1,0.7,2.2,1.3,3.2h-6.6c-0.3-0.4-0.5-1-0.6-1.5c-0.1-0.6-0.2-1.1-0.3-1.7c0-0.6-0.1-1.1-0.2-1.7c0-0.5,0-1,0-1.5v-9
	c0-1.1-0.2-2.2-0.6-3.2c-0.4-1.1-1-2.1-1.8-2.9c-0.9-0.9-2-1.6-3.2-2c-1.5-0.5-3.2-0.8-4.8-0.8h-17.2v24.4h-6v-57h23.2
	c2.5,0,5.1,0.5,7.4,1.5c2,0.9,3.8,2.2,5.4,3.7c1.5,1.5,2.6,3.2,3.3,5.2C138.6,15,138.9,16.9,138.9,18.9L138.9,18.9z M104.5,29.8
	h17.2c1.4,0,2.9-0.3,4.2-0.9c2.6-1.2,4.7-3.3,5.9-5.9c0.6-1.4,0.9-2.8,0.9-4.3c0-1.4-0.3-2.9-0.8-4.2s-1.3-2.4-2.3-3.4
	s-2.2-1.7-3.5-2.2c-1.4-0.5-2.9-0.8-4.4-0.8h-17.2L104.5,29.8L104.5,29.8z M195.4,18.9c0,1.4-0.2,2.8-0.5,4.1
	c-0.3,1.4-0.8,2.7-1.5,3.9c-0.7,1.2-1.5,2.3-2.5,3.3s-2.2,1.9-3.5,2.6c1.3,0.3,2.5,0.9,3.6,1.7c0.9,0.8,1.6,1.7,2.2,2.7
	c0.5,1,0.9,2.2,1.1,3.3c0.2,1.2,0.3,2.5,0.3,3.7v8.6c0,1.2,0.2,2.4,0.5,3.6c0.3,1.1,0.7,2.2,1.3,3.2h-6.6c-0.3-0.4-0.5-1-0.6-1.5
	c-0.1-0.6-0.2-1.1-0.3-1.7c-0.1-0.6-0.1-1.2-0.2-1.7V44.2c0-1.1-0.2-2.2-0.6-3.2c-0.4-1.1-1-2.1-1.8-2.9c-0.9-0.9-2-1.6-3.2-2
	c-1.5-0.5-3.2-0.8-4.8-0.8H161v24.4h-6v-57h23.3c2.5,0,5.1,0.5,7.4,1.5c2,0.9,3.8,2.1,5.4,3.7c1.5,1.5,2.6,3.2,3.3,5.2
	C195,15,195.4,16.9,195.4,18.9z M161,29.8h17.2c1.4,0,2.9-0.3,4.2-0.9c2.6-1.2,4.7-3.3,5.9-5.9c0.6-1.4,0.9-2.8,0.9-4.3
	c0-1.4-0.3-2.9-0.8-4.2c-0.6-1.3-1.3-2.4-2.3-3.4s-2.2-1.7-3.5-2.2c-1.4-0.5-2.9-0.8-4.4-0.8H161V29.8z M259.1,31.1
	c0,4.1-0.5,8.2-1.7,12.1c-1,3.5-2.7,6.7-5,9.5c-2.2,2.6-4.9,4.7-8,6.2c-7,2.9-14.8,2.9-21.8,0c-3.1-1.4-5.8-3.5-8-6.2
	c-2.3-2.8-3.9-6-4.9-9.5c-1.2-3.9-1.7-8-1.7-12.1s0.5-8.1,1.7-12c1-3.4,2.7-6.7,4.9-9.5c2.1-2.6,4.9-4.7,8-6.1
	c3.4-1.5,7.2-2.2,10.9-2.2c3.8-0.1,7.5,0.7,10.9,2.2c3.1,1.4,5.8,3.5,8,6.1c2.3,2.8,4,6,5,9.5C258.6,23,259.2,27,259.1,31.1z
	 M253.1,31.1c0.1-3.5-0.5-7-1.5-10.3c-0.9-2.8-2.3-5.4-4.1-7.7c-1.7-2.1-3.8-3.7-6.2-4.8C236.5,6,230.8,6,226,8.3
	c-2.4,1.1-4.5,2.7-6.1,4.8c-1.8,2.3-3.2,4.9-4.1,7.7c-1,3.3-1.6,6.8-1.5,10.3c-0.1,3.5,0.5,7,1.5,10.3c0.9,2.8,2.2,5.4,4.1,7.7
	c5.2,6.3,14,8.3,21.4,4.8c2.4-1.1,4.5-2.8,6.2-4.8c1.8-2.3,3.2-4.9,4.1-7.7C252.6,38.1,253.2,34.6,253.1,31.1z M312.6,18.9
	c0,1.4-0.2,2.8-0.5,4.1c-0.3,1.4-0.8,2.7-1.5,3.9c-0.7,1.2-1.5,2.3-2.5,3.3s-2.2,1.9-3.5,2.6c1.3,0.3,2.5,0.9,3.6,1.7
	c0.9,0.7,1.7,1.7,2.2,2.7s0.9,2.2,1.1,3.3c0.2,1.2,0.3,2.5,0.3,3.7v8.6c0,1.2,0.2,2.4,0.5,3.6c0.3,1.1,0.7,2.2,1.3,3.2H307
	c-0.3-0.4-0.5-1-0.6-1.5c-0.1-0.6-0.2-1.1-0.3-1.7c0-0.6-0.1-1.1-0.2-1.7V44.2c0-1.1-0.2-2.2-0.6-3.2c-0.4-1.1-1-2.1-1.8-2.9
	c-0.9-0.9-2-1.6-3.2-2c-1.5-0.5-3.2-0.8-4.8-0.8h-17.2v24.4h-6v-57h23.3c2.5,0,5.1,0.5,7.4,1.5c2,0.9,3.8,2.1,5.4,3.7
	c1.5,1.5,2.6,3.2,3.3,5.2C312.3,15,312.6,16.9,312.6,18.9z M278.2,29.8h17.2c1.4,0,2.9-0.3,4.2-0.9c2.6-1.2,4.7-3.3,5.9-5.9
	c0.6-1.4,0.9-2.8,0.9-4.3c0-1.4-0.3-2.9-0.8-4.2c-0.6-1.3-1.3-2.4-2.3-3.4s-2.2-1.7-3.5-2.2c-1.4-0.5-2.9-0.8-4.4-0.8h-17.2
	L278.2,29.8L278.2,29.8z"/>
<linearGradient id="MIRROR-2_1_" gradientUnits="userSpaceOnUse" x1="-1143.1559" y1="-145.0145" x2="-1143.1559" y2="-144.7245" gradientTransform="matrix(656.3 0 0 -196.17 750354.5625 -28330.2754)">
	<stop  offset="0" style="stop-color:#FFFFFF;stop-opacity:0"/>
	<stop  offset="0.52" style="stop-color:#FFFFFF;stop-opacity:0.19"/>
	<stop  offset="0.93" style="stop-color:#FFFFFF"/>
	<stop  offset="1" style="stop-color:#FFFFFF;stop-opacity:0"/>
</linearGradient>
<path id="MIRROR-2" class="st1" d="M14,118.5L32.1,70l18.4,48.5h7.8V61.6h-6v46.7L35.2,61.6h-5.5l-17.5,46.7V61.6h-6v56.9H14z
	 M81.3,118.5V61.6h-6v56.9H81.3z M139.1,102.3c0-1.4-0.2-2.8-0.5-4.1c-0.3-1.4-0.8-2.7-1.5-3.9c-0.7-1.2-1.5-2.3-2.5-3.3
	s-2.2-1.9-3.5-2.6c1.3-0.3,2.5-0.9,3.6-1.7c0.9-0.8,1.6-1.7,2.2-2.7c0.5-1,0.9-2.2,1.1-3.3c0.2-1.2,0.3-2.5,0.3-3.7v-8.6
	c0-1.2,0.2-2.4,0.5-3.6c0.3-1.1,0.7-2.2,1.3-3.2h-6.6c-0.3,0.4-0.5,1-0.6,1.5c-0.1,0.6-0.2,1.1-0.3,1.7s-0.1,1.2-0.2,1.7V77
	c0,1.1-0.2,2.2-0.6,3.2c-0.4,1.1-1,2.1-1.8,2.9c-0.9,0.9-2,1.6-3.2,2c-1.5,0.5-3.2,0.8-4.8,0.8h-17.2V61.5h-6v56.9h23.3
	c2.5,0,5.1-0.5,7.4-1.5c2-0.9,3.8-2.2,5.4-3.7c1.5-1.5,2.6-3.2,3.3-5.2C138.7,106.1,139,104.2,139.1,102.3z M104.7,91.3h17.2
	c1.4,0,2.9,0.3,4.2,0.9c2.6,1.2,4.7,3.3,5.9,5.9c0.6,1.4,0.9,2.8,0.9,4.3c0,1.4-0.3,2.9-0.8,4.2c-0.6,1.3-1.3,2.4-2.3,3.4
	s-2.2,1.7-3.5,2.2c-1.4,0.5-2.9,0.8-4.4,0.8h-17.2C104.7,113,104.7,91.3,104.7,91.3z M195.5,102.3c0-1.4-0.2-2.8-0.5-4.1
	c-0.3-1.4-0.8-2.7-1.5-3.9c-0.7-1.2-1.5-2.3-2.5-3.3s-2.2-1.9-3.5-2.6c1.3-0.3,2.5-0.9,3.6-1.7c0.9-0.8,1.6-1.7,2.2-2.7
	c0.5-1,0.9-2.2,1.1-3.3c0.2-1.2,0.3-2.5,0.3-3.7v-8.6c0-1.2,0.2-2.4,0.5-3.6c0.3-1.1,0.7-2.2,1.3-3.2H190c-0.3,0.4-0.5,1-0.6,1.5
	c-0.1,0.6-0.2,1.1-0.3,1.7s-0.1,1.2-0.2,1.7V77c0,1.1-0.2,2.2-0.6,3.2c-0.4,1.1-1,2.1-1.8,2.9c-0.9,0.9-2,1.6-3.2,2
	c-1.5,0.5-3.2,0.8-4.8,0.8h-17.2V61.5h-6.1v56.9h23.3c2.5,0,5.1-0.5,7.4-1.5c2-0.9,3.8-2.1,5.4-3.7c1.5-1.5,2.6-3.2,3.3-5.2
	C195.2,106.2,195.5,104.2,195.5,102.3z M161.1,91.3h17.2c1.4,0,2.9,0.3,4.2,0.9c2.6,1.2,4.7,3.3,5.9,5.9c0.6,1.4,0.9,2.8,0.9,4.3
	c0,1.4-0.3,2.9-0.8,4.2c-0.5,1.3-1.3,2.4-2.3,3.4s-2.2,1.7-3.5,2.2c-1.4,0.5-2.9,0.8-4.4,0.8h-17.2L161.1,91.3L161.1,91.3z"/>
<linearGradient id="SVGID_1_" gradientUnits="userSpaceOnUse" x1="275.6856" y1="2.425" x2="275.6856" y2="93.5595" gradientTransform="matrix(1 0 0 -1 0 150)">
	<stop  offset="0" style="stop-color:#FFFFFF;stop-opacity:0"/>
	<stop  offset="1" style="stop-color:#FFFFFF"/>
</linearGradient>
<path class="st2" d="M353.1,131.8c-4.7,2.6-9.9,3.9-15.3,4c-3.3,0-6.6-0.6-9.7-1.7c-3.1-1.1-6.1-2.6-8.8-4.4c-2.7-1.9-5.3-4-7.6-6.4
	c-2.3-2.4-4.4-4.9-6.4-7.5c-3.6-5-6.9-9.8-9.7-14.3c-2.8-4.5-5.1-8.2-6.7-11.2c-0.2-0.6,0-0.9,0.8-1c3.6-0.4,7.2-1.2,10.6-2.5
	c2.9-1,5.7-2.5,8.2-4.4c2.1-1.5,3.8-3.4,5.2-5.6c1.2-1.7,1.8-3.7,1.9-5.8c0-3.8-1.9-6.6-5.6-8s-8.9-2.2-15.7-2.2
	c-5.3,0-10.6,0.5-15.8,1.5c-2.8,0.6-5.6,1.4-8.3,2.4c-2.6,0.9-5.1,2-7.5,3.3c-0.9,0.4-1.5,1.2-1.5,2.2c-0.1,0.9-0.3,1.8-0.6,2.6
	c-0.2,0.8-0.5,1.7-0.8,2.5v0.1c0,0.1,0.2,0.3,0.3,0.2c0.2,0,0.4,0,0.5-0.1c1-1.7,2.1-3.3,3.3-4.8c1.2-1.4,2.5-2.6,4.1-3.5
	c2.3-1.3,4.7-2.3,7.2-3.1s5.1-1.3,7.7-1.5c0.4,0,0.7,0.1,0.8,0.3c0.1,0.2,0.1,0.6-0.2,1.3c-3.9,7.5-8.6,15.7-14,24.7
	c-4.3,7.1-9.4,15-15.2,23.7h-0.1c-0.7-0.3-1.2-0.7-1.7-1.3c-0.7-0.9-1.2-1.9-1.6-3c-0.2-0.9-0.7-2.5-1.2-4.8s-1.1-5-1.7-7.9
	c-0.6-2.9-1.2-6-1.8-9.2s-1.2-6.2-1.7-9s-1-5.2-1.3-7.1c-0.3-1.1-0.5-2.3-0.6-3.4c-0.2-1.4-0.4-2.9-0.5-4.3c-0.1-1.6,0-3.3,0.3-4.9
	c0.1-0.4,0-0.8-0.2-1.1s-0.4-0.2-0.7,0.5c-0.5,0.9-1.3,1.7-2.2,2.2c-0.9,0.6-1.8,1.3-2.5,2.2c-1.9,2.8-6,10.2-12.3,22.1
	s-14.3,27.9-24.2,48.1c-1,2.3-1.8,4.2-2.4,5.7c-0.5,1.5-0.6,3-0.1,4.5l3.1,5.6c0.4,0.2,0.6,0,0.6-0.6c-0.4-1.1-0.6-2.3-0.6-3.5
	c0-1.1,0.1-2.2,0.3-3.3c1.3-5.1,2.9-10,4.9-14.9c2.4-6.2,5.6-13.2,9.5-21c1.7-0.4,3.4-1,5.1-1.6c2.2-0.9,4.6-1.7,6.8-2.6
	s4.2-1.6,5.8-2.1c1.1-0.4,2.2-0.7,3.4-0.9c1.5-0.2,3,0,4.4,0.6c1,0.4,1.9,1.2,2.3,2.2c0.4,1,0.6,2.1,0.8,3.2
	c0.3,1.7,0.7,3.4,1.1,5.3c0.4,1.9,0.7,3.7,1.1,5.3c0.4,1.6,0.6,2.7,0.7,3.2c0.7,1,1.4,1.5,2.1,1.7l0,0c0.2,0.3,3.4-0.5,3.9-0.8
	c0.6-0.2,1.3-0.3,1.9-0.3h1.5c0.4,0,0.9,0,1.3,0.1s0.9,0.1,1.3,0.2c0.2,0,0.4-0.1,0.5-0.3c0.8-1.7,2-4,3.5-7s3.3-6.3,5.3-9.9
	s4.2-7.3,6.4-11.2c2.2-3.9,4.3-7.5,6.4-10.9s4-6.4,5.7-9s3.1-4.5,4-5.6c0.6-0.6,1.3-1.1,2.1-1.3c0.8-0.2,1.7-0.3,2.5-0.3
	c2.1-0.1,4.1,0.2,6.1,0.9c1.4,0.4,2.8,1.2,3.9,2.2c1,0.8,1.7,1.9,2.1,3.1c0.4,1.1,0.6,2.2,0.6,3.3c0,2.7-0.7,5.3-2,7.6
	c-1.3,2.2-3.2,4.1-5.5,5.4c-2.6,1.5-5.5,2.5-8.4,3.1c-3.5,0.7-7,1-10.6,1c-0.3,0-0.4,0.2-0.4,0.5c0.8,1.2,1.7,2.9,2.9,4.9
	s2.4,4.1,3.7,6.2c1.3,2.1,2.5,4.1,3.7,6.2s2.2,3.7,3.1,5.1c2.6,4.1,5.5,8.1,8.7,11.8c2.6,3,5.5,5.7,8.8,7.9
	c3.1,2.1,6.6,3.6,10.2,4.6c4.2,1.1,8.5,1.6,12.8,1.5c3.2,0,6.5-0.4,9.6-1.3c3-0.8,5.9-2,8.6-3.5c0.3,0,0.5-0.3,0.5-0.6
	C353.9,131.5,353.6,131.5,353.1,131.8z M242.2,94.1c-0.5,0.1-1,0.2-1.5,0.2c-1.2,0.2-2.4,0.5-3.5,1c-1.7,0.5-3.7,1.3-6.3,2.3
	l-3.6,1.4c-1.4,0.6-2.8,1.1-4.2,1.5c-1.2,0.4-2.4,0.7-3.6,0.8c-1.1,0.1-1.7-0.1-2-0.5c0.7-2,1.5-3.8,2.6-5.6c1-2.3,2.2-4.6,3.5-7.1
	s2.6-5,4-7.5s2.6-4.8,3.8-6.9s2.1-3.8,2.9-5.2c0.8-1.4,1.2-2.1,1.4-2.4c0.5-0.7,0.8-1.1,1-1.1s0.3,0.3,0.4,1c0,0.3,0.3,1.6,0.7,3.8
	l3.2,16.3c0.6,2.9,1,5.2,1.3,6.9C242.3,93.7,242.3,94,242.2,94.1z"/>
<path class="st0" d="M330.1,121.3h-3.5V120h8.8v1.3h-3.5v10.6h-1.8V121.3z"/>
<path class="st0" d="M346.7,126.6c0-1.8-0.2-3.7-0.2-5.1l0,0c-0.4,1.3-0.9,2.9-1.5,4.4l-2.2,5.7h-1.1l-2-5.7
	c-0.7-1.8-1.1-3.1-1.3-4.6l0,0c0,1.5-0.2,3.5-0.2,5.3l-0.2,5.1h-1.5l0.9-11.9h2l2,5.7c0.4,1.5,0.9,2.9,1.1,4l0,0
	c0.2-1.3,0.7-2.4,1.3-4l2.2-5.7h1.8l0.7,11.9h-1.5L346.7,126.6z"/>
</svg>
