<svg xmlns="http://www.w3.org/2000/svg" viewBox="0 0 80.3 204.69"><g id="Layer_2" data-name="Layer 2"><g id="Layer_1-2" data-name="Layer 1"><path d="M61.82,170.67c-5.23-1.47-10.67-2.45-15.66-4.5a72.63,72.63,0,0,1-33.08-27.09c-8-11.94-10.58-25-6-39,1.5-4.59,3.18-9.12,5-13.59a103.57,103.57,0,0,0,7.43-33c.53-8.47.7-17,1.14-25.45A29.26,29.26,0,0,1,30.87,6.58C41.1-2.33,57.42-2.21,66.8,7.06A24.47,24.47,0,0,1,73.9,30a135.72,135.72,0,0,1-6.79,23.44c-4.9,12.62-7.94,25.36-6.54,39,1.23,11.91,3.88,23.3,10.81,33.35,4.39,6.38,7.61,13.36,8.48,21.11a30.06,30.06,0,0,1-.7,10.82C77,166,70.88,170,61.82,170.67Z"/><path d="M56.44,186.31a43,43,0,0,1,.83-4.69c1.25-4.53,3.9-7.67,8.83-8.26,5.1-.62,9.11,1.15,11.86,5.58,3.73,6,2.9,16.69-1.69,22.15-3.59,4.26-8.26,4.8-12.74,1.29C58.6,198.51,56.77,193.11,56.44,186.31Z"/><path d="M34.2,181.13a28.25,28.25,0,0,1,.49-4c.9-3.38,2.57-6.25,6.36-6.84,3.62-.55,6.5,1.08,8.54,4a13.3,13.3,0,0,1,1.71,11.46c-1.06,4-4.16,6.48-7.79,6.52a8.87,8.87,0,0,1-8.79-6.71A31.35,31.35,0,0,1,34.2,181.13Z"/><path d="M32.67,168c.11,4.46-2.74,7.92-6.53,7.92-3.62,0-6.44-3.12-6.62-7.34-.19-4.38,2.31-7.77,5.84-7.94C29.06,160.41,32.57,164,32.67,168Z"/><path d="M18.49,154.07c0,3.5-2.11,6.52-4.73,6.63-3,.12-6.15-3.67-6.08-7.29.06-3.06,2.39-5.64,5.12-5.68C15.88,147.69,18.44,150.55,18.49,154.07Z"/><path d="M9,139.76c-.17,2.82-2.51,5.43-4.89,5.43S-.2,142.54,0,139.82c.23-2.93,2.65-5.31,5.14-5S9.12,137.08,9,139.76Z"/></g></g></svg>