<svg width="25" height="58" xmlns="http://www.w3.org/2000/svg" xmlns:xlink="http://www.w3.org/1999/xlink" overflow="hidden"><defs><clipPath id="clip0"><rect x="1217" y="224" width="25" height="58"/></clipPath><clipPath id="clip1"><rect x="1217" y="224" width="24" height="57"/></clipPath><clipPath id="clip2"><rect x="1217" y="224" width="24" height="57"/></clipPath><clipPath id="clip3"><rect x="1217" y="223" width="24" height="71"/></clipPath></defs><g clip-path="url(#clip0)" transform="translate(-1217 -224)"><g clip-path="url(#clip1)"><g clip-path="url(#clip2)"><g clip-path="url(#clip3)"><path d="M2.0197 34.4933C2.05692 34.4933 2.09414 34.4921 2.13183 34.4897 3.17089 34.4287 3.96356 33.5373 3.90325 32.4983 3.81068 30.9311 3.76898 29.5043 3.76898 28.2057 3.76121 22.5015 4.59298 19.297 5.40943 17.6245L5.40943 52.9589C5.40943 54.5678 6.71374 55.8712 8.32168 55.8712 9.93009 55.8712 11.2344 54.5678 11.2344 52.9589L11.2344 31.6946 12.3262 31.6946 12.3262 52.9589C12.3262 54.5678 13.6305 55.8712 15.2385 55.8712 16.8469 55.8712 18.1512 54.5678 18.1512 52.9589L18.1512 17.6341C18.2909 17.9208 18.4317 18.2494 18.571 18.6329 19.2348 20.4729 19.793 23.4925 19.7909 28.2057 19.7909 29.5048 19.7492 30.9316 19.6581 32.4988 19.5971 33.5371 20.3904 34.4289 21.4295 34.4895 21.4669 34.4918 21.5044 34.4928 21.5416 34.493 22.5322 34.493 23.3623 33.7199 23.4209 32.7183 23.5156 31.0844 23.5601 29.5851 23.5601 28.2057 23.5505 21.0955 22.4151 17.1604 20.8665 14.7949 20.0927 13.6202 19.1877 12.8671 18.3509 12.4499 17.5609 12.0513 16.8653 11.9564 16.4382 11.9481 16.4024 11.9458 16.367 11.9427 16.3308 11.9427L7.23009 11.9427C7.19381 11.9427 7.15848 11.946 7.12291 11.9481 6.69583 11.9562 6.00022 12.0511 5.20897 12.4499 3.94236 13.0784 2.57586 14.4526 1.62019 16.8879 0.652976 19.3328 0.00353342 22.8676 0 28.2057 0.000471123 29.5851 0.0445211 31.0852 0.140395 32.7188 0.199049 33.7199 1.0294 34.493 2.0197 34.4933Z" fill="#595B6B" transform="matrix(1.00716 0 -0 1 1217.02 223.753)"/><path d="M17.0808 5.30013C17.0808 8.22731 14.7078 10.6003 11.7807 10.6003 8.85348 10.6003 6.48053 8.22731 6.48053 5.30013 6.48053 2.37295 8.85348-1.67376e-15 11.7807-1.67376e-15 14.7078-2.51065e-15 17.0808 2.37295 17.0808 5.30013Z" fill="#595B6B" transform="matrix(1.00716 0 -0 1 1217.02 223.753)"/><text fill="#595B6B" font-family="Arial,Arial_MSFontService,sans-serif" font-weight="700" font-size="5" transform="matrix(0.237248 0 0 0.235561 1217.02 283)">Created by Gan Khoon Lay<tspan x="0" y="4.24518">from the Noun Project</tspan></text></g></g></g></g></svg>