<svg width="59" height="60" xmlns="http://www.w3.org/2000/svg" xmlns:xlink="http://www.w3.org/1999/xlink" overflow="hidden"><defs><clipPath id="clip0"><rect x="466" y="224" width="59" height="60"/></clipPath><clipPath id="clip1"><rect x="467" y="224" width="57" height="60"/></clipPath><clipPath id="clip2"><rect x="467" y="224" width="57" height="60"/></clipPath><clipPath id="clip3"><rect x="467" y="224" width="61" height="78"/></clipPath></defs><g clip-path="url(#clip0)" transform="translate(-466 -224)"><g clip-path="url(#clip1)"><g clip-path="url(#clip2)"><g clip-path="url(#clip3)"><path d="M21.9593 44.8225C18.2769 45.8105 14.7304 44.5182 15.8715 48.7709 17.012 53.0236 20.9219 55.6705 24.6044 54.6825 28.2868 53.6944 30.347 49.4466 29.2059 45.1939 28.0655 40.9412 25.6418 43.8345 21.9593 44.8225Z" fill="#595B6B" transform="matrix(1 0 -0 1.01462 467 224)"/><path d="M21.244 42.1958C28.1655 40.3393 26.3676 38.0028 27.1305 33.369 27.8459 29.0242 21.694 15.7014 14.6444 17.5926 7.59484 19.4838 8.98414 34.0588 11.7304 37.5003 14.7737 41.3145 14.3218 44.0529 21.244 42.1958Z" fill="#595B6B" transform="matrix(1 0 -0 1.01462 467 224)"/><path d="M39.0287 33.5111C35.3462 32.5231 32.9225 29.6298 31.7821 33.8825 30.6416 38.1352 32.7018 42.3836 36.3836 43.371 40.0661 44.359 43.9754 41.7121 45.1165 37.4594 46.257 33.2067 42.7105 34.4985 39.0287 33.5111Z" fill="#595B6B" transform="matrix(1 0 -0 1.01462 467 224)"/><path d="M46.3442 6.28115C39.2946 4.39053 33.1427 17.7134 33.8581 22.0575 34.6211 26.6914 32.8231 29.0272 39.7447 30.8843 46.6662 32.7408 46.2149 30.003 49.2588 26.1889 52.0045 22.7473 53.3938 8.17239 46.3442 6.28115Z" fill="#595B6B" transform="matrix(1 0 -0 1.01462 467 224)"/><text fill="#595B6B" font-family="Arial,Arial_MSFontService,sans-serif" font-weight="700" font-size="5" transform="matrix(0.60988 0 0 0.618796 467 295)">Created by Eugen Belyakoff<tspan x="0" y="4.84812">from the Noun Project</tspan></text></g></g></g></g></svg>